<?xml version="1.0" standalone="no"?>
<!DOCTYPE svg PUBLIC "-//W3C//DTD SVG 20010904//EN"
 "http://www.w3.org/TR/2001/REC-SVG-20010904/DTD/svg10.dtd">
<svg version="1.0" xmlns="http://www.w3.org/2000/svg"
 width="1024.000000pt" height="1024.000000pt" viewBox="0 0 1024.000000 1024.000000"
 preserveAspectRatio="xMidYMid meet">
<metadata>
Created by potrace 1.14, written by Peter Selinger 2001-2017
</metadata>
<g transform="translate(0.000000,1024.000000) scale(0.100000,-0.100000)"
fill="#000000" stroke="none">
<path d="M1488 10235 c-2 -3 -22 -7 -44 -9 -21 -2 -46 -6 -54 -10 -8 -3 -26
-7 -40 -10 -73 -13 -232 -89 -311 -149 -58 -43 -139 -114 -139 -121 0 -2 -14
-19 -31 -37 -82 -88 -166 -248 -195 -370 -34 -142 -33 -52 -33 -4414 0 -4212
0 -4261 19 -4345 22 -94 28 -115 30 -115 1 0 3 -7 5 -15 7 -34 66 -150 107
-210 60 -90 93 -127 188 -211 86 -76 296 -180 390 -194 14 -2 45 -8 70 -14 59
-14 6601 -15 6680 -1 30 5 66 12 80 15 14 3 40 8 58 11 18 3 35 10 38 15 3 5
12 9 20 9 27 0 147 62 224 116 81 56 192 166 237 236 15 23 31 45 34 48 16 13
101 212 98 230 0 3 4 16 9 30 14 36 25 115 26 182 1 32 4 58 7 58 4 0 3 18 -1
40 -4 22 -4 43 1 46 4 2 6 11 3 18 -8 21 -10 126 -3 126 4 0 3 15 -1 34 -4 19
-4 39 0 46 4 7 4 27 0 45 -4 18 -4 39 0 45 4 7 4 24 0 39 -4 14 -4 36 0 47 5
11 5 27 0 34 -4 7 -4 24 0 39 4 14 4 35 0 46 -4 11 -4 29 0 40 4 11 4 29 0 40
-4 11 -6 23 -4 27 7 11 8 137 2 143 -3 3 -2 22 2 41 5 19 4 37 -1 40 -13 8 -3
21 21 27 11 3 18 1 14 -4 -3 -5 5 -5 19 0 16 6 28 6 35 -1 6 -6 12 -6 16 1 5
8 13 8 27 1 10 -6 19 -7 19 -3 0 10 41 10 57 0 7 -4 14 -3 18 2 3 6 15 7 28 2
12 -5 31 -5 42 -1 11 4 25 3 32 -2 7 -5 14 -5 18 2 4 7 12 7 26 0 10 -6 19 -7
19 -2 0 5 15 8 34 7 56 -3 176 71 176 108 0 9 3 17 8 17 27 0 31 64 32 493 1
497 -1 513 -66 580 -20 20 -53 44 -73 53 -20 9 -43 19 -51 23 -8 4 -27 4 -42
0 -16 -4 -30 -3 -34 2 -3 5 -13 5 -22 1 -9 -5 -28 -6 -42 -2 -14 4 -35 3 -47
-1 -14 -5 -23 -5 -23 2 0 6 -7 6 -19 -1 -14 -7 -22 -7 -26 0 -4 6 -12 7 -18 3
-15 -9 -49 -9 -64 0 -6 4 -14 3 -18 -3 -4 -7 -12 -7 -26 0 -12 7 -19 7 -19 1
0 -7 -9 -7 -22 -2 -23 8 -44 66 -28 76 5 3 5 18 1 33 -5 15 -5 36 -1 47 4 11
4 32 -1 47 -4 15 -4 30 1 33 4 3 4 21 0 40 -4 19 -4 37 0 40 5 3 5 18 1 33 -5
15 -5 36 -1 47 4 11 5 25 3 31 -7 19 -8 124 -2 124 4 0 3 15 -1 34 -4 19 -4
39 0 46 4 7 4 27 0 45 -4 18 -4 39 0 45 4 7 4 26 0 41 -5 16 -5 31 0 34 5 3 5
18 0 34 -4 15 -4 34 0 41 4 6 4 27 0 45 -4 18 -4 39 0 45 4 7 4 26 0 41 -5 16
-5 31 0 34 5 3 5 18 0 34 -4 15 -4 34 0 41 4 6 4 27 0 46 -4 19 -4 36 0 39 4
3 4 21 0 40 -9 38 -12 35 63 50 9 2 17 0 17 -5 0 -4 18 -4 40 0 22 4 40 4 40
0 0 -4 18 -4 40 0 22 4 40 4 40 0 0 -4 18 -4 40 0 22 4 43 4 46 -1 2 -4 10 -6
17 -4 7 3 37 7 68 9 31 2 71 11 90 20 46 22 99 70 99 90 0 9 3 16 8 16 27 0
31 64 32 493 1 530 1 526 -105 615 -23 19 -97 44 -117 38 -10 -2 -18 -1 -18 4
0 4 -18 4 -40 0 -22 -4 -40 -4 -40 0 0 4 -18 4 -40 0 -22 -4 -40 -4 -40 0 0 4
-18 4 -40 0 -22 -4 -40 -4 -40 0 0 4 -18 4 -40 0 -22 -4 -40 -4 -40 0 0 4 -18
4 -40 0 -23 -4 -39 -6 -37 -3 3 2 1 20 -3 39 -4 19 -4 36 0 39 5 3 5 18 1 33
-5 15 -5 36 -1 47 4 11 4 32 -1 47 -4 15 -4 30 1 33 4 3 4 21 0 40 -4 19 -4
37 0 40 5 3 5 18 1 33 -5 15 -5 36 -1 47 4 11 5 25 3 31 -7 19 -8 124 -2 124
4 0 3 15 -1 34 -4 19 -4 39 0 46 4 7 4 27 0 45 -4 18 -4 39 0 45 4 7 4 24 0
39 -4 14 -4 36 0 47 5 11 5 27 0 34 -4 7 -4 24 0 39 4 14 4 35 0 46 -4 11 -4
29 0 40 4 11 4 29 0 40 -4 11 -6 23 -4 27 7 11 8 137 2 143 -3 3 -2 22 2 41 5
19 4 37 -1 40 -13 8 -3 21 21 27 11 3 18 1 14 -4 -3 -5 5 -5 19 0 16 6 28 6
35 -1 6 -6 12 -6 16 1 5 8 13 8 27 1 10 -6 19 -7 19 -3 0 10 41 10 57 0 7 -4
14 -3 18 2 3 6 15 7 28 2 12 -5 31 -5 42 -1 11 4 25 3 32 -2 7 -5 14 -5 18 2
4 7 12 7 26 0 10 -6 19 -7 19 -2 0 5 15 8 34 7 56 -3 176 71 176 108 0 9 3 17
8 17 27 0 31 64 32 493 1 497 -1 513 -66 580 -20 20 -53 44 -73 53 -20 9 -43
19 -51 23 -8 4 -27 4 -42 0 -16 -4 -30 -3 -34 2 -3 5 -13 5 -22 1 -9 -5 -28
-6 -42 -2 -14 4 -35 3 -47 -1 -14 -5 -23 -5 -23 2 0 6 -7 6 -19 -1 -14 -7 -22
-7 -26 0 -4 6 -12 7 -18 3 -15 -9 -49 -9 -64 0 -6 4 -14 3 -18 -3 -4 -7 -12
-7 -26 0 -12 7 -19 7 -19 1 0 -7 -9 -7 -22 -2 -23 8 -44 66 -28 76 5 3 5 18 1
33 -5 15 -5 36 -1 47 4 11 4 32 -1 47 -4 15 -4 30 1 33 4 3 4 21 0 40 -4 19
-4 37 0 40 5 3 5 18 1 33 -5 15 -5 36 -1 47 4 11 5 25 3 31 -7 19 -8 124 -2
124 4 0 3 15 -1 34 -4 19 -4 39 0 46 4 7 4 27 0 45 -4 18 -4 39 1 46 4 7 5 17
3 21 -7 11 -9 116 -2 123 3 3 2 23 -2 45 -4 23 -3 40 2 40 5 0 6 4 3 10 -3 5
-8 42 -10 82 -4 62 -12 105 -40 208 -2 8 -4 16 -5 18 -2 1 -3 5 -5 10 -15 53
-59 139 -110 217 -133 200 -354 351 -585 401 -19 4 -42 10 -50 13 -19 7 -6665
13 -6672 6z m3317 -2555 c4 6 11 7 17 4 6 -4 41 -8 77 -10 109 -4 352 -61 367
-85 3 -5 9 -7 14 -4 5 3 11 1 15 -5 3 -5 15 -10 26 -10 10 0 19 -4 19 -9 0 -5
10 -11 23 -15 25 -6 147 -78 189 -110 14 -12 36 -28 47 -37 54 -41 189 -178
221 -225 53 -76 90 -136 90 -143 0 -5 3 -11 8 -13 8 -3 81 -162 86 -188 1 -3
4 -10 8 -16 4 -6 10 -25 13 -42 3 -17 10 -44 16 -59 6 -15 12 -41 14 -58 2
-16 6 -41 10 -55 3 -14 8 -59 11 -100 6 -97 5 -90 1 -127 -2 -18 1 -33 6 -33
4 0 6 -4 3 -9 -6 -9 -11 -39 -20 -116 -7 -51 -14 -89 -28 -140 -5 -22 -10 -41
-9 -43 1 -1 -6 -16 -14 -32 -8 -16 -15 -31 -15 -32 5 -14 -96 -225 -117 -246
-7 -7 -13 -19 -13 -27 0 -7 -3 -15 -7 -17 -5 -1 -30 -31 -57 -66 -112 -146
-280 -281 -454 -364 -56 -28 -108 -51 -115 -52 -7 -2 -19 -6 -27 -9 -12 -5
-70 -22 -110 -32 -3 -1 -25 -5 -50 -9 -25 -5 -54 -10 -65 -13 -11 -3 -84 -6
-162 -8 -177 -4 -307 17 -458 72 -109 41 -305 146 -305 165 0 4 -5 8 -11 8
-26 0 -219 183 -269 256 -83 121 -158 258 -179 329 -7 22 -16 49 -21 60 -5 11
-12 34 -16 50 -4 17 -8 35 -10 40 -12 42 -26 141 -31 215 -2 30 -4 60 -4 65
-3 28 12 196 21 240 6 28 12 61 15 74 9 50 58 183 92 254 31 65 89 164 103
177 3 3 16 21 30 40 65 93 186 208 305 291 93 65 296 157 383 174 9 2 17 4 17
5 0 2 12 4 60 14 65 13 102 18 153 21 29 1 55 5 58 8 4 4 15 2 25 -3 12 -7 20
-7 24 0z m-895 -3200 c37 6 111 -4 145 -19 45 -21 105 -40 105 -35 0 4 6 1 13
-5 8 -6 24 -13 38 -15 13 -3 26 -6 29 -7 3 -1 10 -3 15 -4 6 -1 17 -5 25 -8 8
-3 26 -8 40 -10 14 -3 36 -8 50 -11 14 -3 39 -8 55 -10 17 -2 41 -7 55 -10 48
-10 125 -18 197 -20 40 0 73 -5 73 -9 0 -4 8 -3 18 2 21 11 30 11 60 0 12 -5
22 -5 22 -1 0 4 30 8 68 9 89 2 142 8 257 28 54 10 80 16 97 21 9 3 26 7 37 9
12 2 61 16 109 32 48 15 90 26 95 25 4 -1 7 3 7 10 0 6 3 8 6 5 4 -3 16 -1 27
4 18 10 94 22 125 20 11 -1 44 -1 75 0 6 0 34 -2 61 -5 218 -20 363 -60 541
-148 119 -59 151 -78 230 -137 253 -191 418 -472 449 -761 1 -14 6 -31 10 -38
4 -7 4 -12 -1 -12 -4 0 -8 -13 -8 -30 0 -16 4 -30 8 -30 4 0 3 -9 -3 -20 -8
-14 -8 -20 0 -20 8 0 8 -6 0 -20 -8 -14 -8 -20 0 -20 7 0 8 -6 1 -17 -11 -22
-11 -34 0 -55 6 -10 5 -19 -1 -23 -7 -4 -7 -12 -1 -23 6 -10 6 -23 0 -34 -5
-10 -6 -18 -2 -18 9 0 8 -99 -2 -175 -4 -27 -20 -76 -37 -107 -31 -59 -113
-148 -135 -148 -7 0 -13 -3 -13 -7 0 -7 -81 -45 -100 -48 -3 -1 -21 -5 -40
-10 -19 -4 -52 -9 -72 -10 -21 -1 -40 -4 -44 -8 -4 -3 -15 -2 -25 3 -12 7 -20
7 -24 0 -4 -7 -13 -7 -26 0 -10 6 -19 7 -19 3 0 -4 -13 -8 -29 -8 -16 0 -27 3
-24 7 2 5 -7 4 -21 -2 -17 -6 -26 -6 -26 1 0 6 -7 6 -19 -1 -14 -7 -22 -7 -26
0 -4 7 -11 7 -18 2 -7 -5 -21 -6 -32 -2 -11 4 -30 4 -42 -1 -15 -5 -23 -5 -23
2 0 6 -7 6 -19 -1 -14 -7 -22 -7 -26 0 -4 7 -11 7 -18 2 -7 -5 -21 -6 -32 -2
-11 4 -30 4 -42 -1 -15 -5 -23 -5 -23 2 0 6 -7 6 -19 -1 -14 -7 -22 -7 -26 0
-4 7 -11 7 -18 2 -7 -5 -21 -6 -32 -2 -11 4 -30 4 -42 -1 -15 -5 -23 -5 -23 2
0 6 -7 6 -19 -1 -14 -7 -22 -7 -26 0 -4 7 -11 7 -18 2 -7 -5 -21 -6 -32 -2
-11 4 -30 4 -42 -1 -15 -5 -23 -5 -23 2 0 6 -7 6 -19 -1 -14 -7 -22 -7 -26 0
-4 7 -11 7 -18 2 -7 -5 -21 -6 -32 -2 -11 4 -30 4 -42 -1 -15 -5 -23 -5 -23 2
0 6 -7 6 -19 -1 -14 -7 -22 -7 -26 0 -4 7 -11 7 -18 2 -7 -5 -21 -6 -32 -2
-11 4 -30 4 -42 -1 -15 -5 -23 -5 -23 2 0 6 -7 6 -19 -1 -14 -7 -22 -7 -26 0
-4 7 -11 7 -18 2 -7 -5 -21 -6 -32 -2 -11 4 -30 4 -42 -1 -15 -5 -23 -5 -23 2
0 6 -7 6 -19 -1 -14 -7 -22 -7 -27 1 -4 7 -10 7 -16 1 -7 -7 -19 -7 -33 -2
-13 5 -25 6 -28 4 -9 -9 -71 -10 -89 -2 -10 5 -18 5 -18 1 0 -9 -73 -8 -96 1
-7 3 -16 1 -19 -4 -3 -6 -15 -6 -30 0 -14 5 -25 6 -25 2 0 -4 -11 -7 -25 -7
-14 0 -25 3 -25 7 0 4 -10 4 -23 -1 -14 -5 -30 -5 -40 0 -11 7 -17 6 -17 0 0
-7 -8 -7 -25 -1 -14 5 -25 6 -25 2 0 -4 -11 -7 -25 -7 -14 0 -25 3 -25 7 0 4
-11 3 -25 -2 -15 -6 -26 -6 -30 1 -4 5 -12 6 -18 2 -13 -8 -93 -7 -106 2 -6 3
-12 1 -16 -4 -4 -7 -15 -7 -30 -1 -14 5 -25 6 -25 2 0 -4 -11 -7 -25 -7 -14 0
-25 3 -25 7 0 4 -10 4 -23 -1 -14 -5 -30 -5 -40 0 -11 7 -17 6 -17 0 0 -7 -8
-7 -25 -1 -14 5 -25 6 -25 2 0 -4 -11 -7 -25 -7 -14 0 -25 3 -25 7 0 4 -11 3
-25 -2 -15 -6 -26 -6 -30 1 -4 5 -12 6 -18 2 -13 -8 -93 -7 -106 2 -6 3 -12 1
-16 -4 -4 -7 -15 -7 -30 -1 -14 5 -25 6 -25 2 0 -4 -11 -7 -25 -7 -14 0 -25 3
-25 7 0 4 -10 4 -23 -1 -14 -5 -30 -5 -40 0 -11 7 -17 6 -17 0 0 -7 -8 -7 -25
-1 -14 5 -25 6 -25 2 0 -4 -11 -7 -25 -7 -14 0 -25 3 -25 7 0 4 -11 3 -25 -2
-15 -6 -26 -6 -30 1 -4 5 -12 6 -18 2 -13 -8 -93 -7 -106 2 -6 3 -12 1 -16 -4
-4 -7 -15 -7 -30 -1 -14 5 -25 6 -25 2 0 -4 -11 -7 -25 -7 -14 0 -25 3 -25 7
0 4 -10 4 -23 -1 -14 -5 -30 -5 -40 0 -11 7 -17 6 -17 0 0 -7 -8 -7 -25 -1
-14 5 -25 6 -25 2 0 -4 -11 -7 -25 -7 -14 0 -25 3 -25 7 0 4 -11 3 -25 -2 -15
-6 -26 -6 -30 1 -4 5 -12 6 -18 2 -14 -8 -93 -7 -107 2 -6 3 -10 1 -10 -5 0
-6 -5 -8 -11 -5 -6 4 -29 8 -52 10 -73 6 -187 40 -187 56 0 5 -6 9 -14 9 -20
0 -136 108 -136 126 0 8 -4 14 -9 14 -13 0 -41 82 -46 131 -2 24 -4 44 -5 44
-1 0 -3 12 -4 28 -1 15 2 27 6 27 4 0 3 11 -2 25 -6 16 -6 25 0 25 6 0 6 9 0
25 -6 16 -6 25 0 25 6 0 6 9 0 25 -6 15 -6 26 1 30 6 4 6 13 0 23 -6 10 -6 23
0 34 5 10 6 18 2 18 -10 0 -7 75 2 90 3 6 1 10 -5 10 -6 0 -8 5 -5 10 4 6 8
36 10 68 4 70 15 139 28 172 3 8 11 33 17 55 6 22 15 49 20 60 5 11 19 43 31
70 64 149 239 349 404 461 83 57 257 149 280 149 6 0 12 2 15 6 5 5 145 50
170 53 8 2 31 6 50 11 19 4 44 9 55 11 11 1 20 3 20 4 0 3 68 10 123 14 29 2
55 6 59 9 3 4 13 3 22 -1 9 -5 32 -6 51 -2z"/>
</g>
</svg>
